<svg width="38" height="38" viewBox="0 0 38 38" fill="none" xmlns="http://www.w3.org/2000/svg">
<path fill-rule="evenodd" clip-rule="evenodd" d="M10.6874 11.8749C10.6874 8.1585 13.7002 5.14575 17.4166 5.14575C21.133 5.14575 24.1458 8.1585 24.1458 11.8749C24.1458 15.5913 21.133 18.6041 17.4166 18.6041C13.7002 18.6041 10.6874 15.5913 10.6874 11.8749ZM17.4166 7.52075C15.0118 7.52075 13.0624 9.47018 13.0624 11.8749C13.0624 14.2797 15.0118 16.2291 17.4166 16.2291C19.8213 16.2291 21.7708 14.2797 21.7708 11.8749C21.7708 9.47018 19.8213 7.52075 17.4166 7.52075Z" fill="#176DEA"/>
<path fill-rule="evenodd" clip-rule="evenodd" d="M5.14575 26.9166C5.14575 23.6374 7.80406 20.9791 11.0833 20.9791H11.623C11.9151 20.9791 12.2053 21.0253 12.483 21.1159L13.8534 21.5634C16.1687 22.3194 18.6645 22.3194 20.9797 21.5634L22.3501 21.1159C22.6278 21.0253 22.9181 20.9791 23.2102 20.9791H23.7499C27.0291 20.9791 29.6874 23.6374 29.6874 26.9166V28.798C29.6874 29.9907 28.8231 31.0075 27.6461 31.1997C20.8713 32.3058 13.9619 32.3058 7.1871 31.1997C6.01007 31.0075 5.14575 29.9906 5.14575 28.798V26.9166ZM11.0833 23.3541C9.11574 23.3541 7.52075 24.9491 7.52075 26.9166V28.798C7.52075 28.8267 7.54151 28.8511 7.56979 28.8557C14.0911 29.9204 20.742 29.9204 27.2634 28.8557C27.2917 28.8511 27.3124 28.8267 27.3124 28.798V26.9166C27.3124 24.9491 25.7174 23.3541 23.7499 23.3541H23.2102C23.1685 23.3541 23.127 23.3607 23.0873 23.3736L21.7169 23.8211C18.9226 24.7335 15.9105 24.7335 13.1162 23.8211L11.7458 23.3736C11.7062 23.3607 11.6647 23.3541 11.623 23.3541H11.0833Z" fill="#176DEA"/>
<path d="M30.8749 9.89575C31.5308 9.89575 32.0624 10.4274 32.0624 11.0833V13.8541H34.8333C35.4891 13.8541 36.0208 14.3857 36.0208 15.0416C36.0208 15.6974 35.4891 16.2291 34.8333 16.2291H32.0624V18.9999C32.0624 19.6558 31.5308 20.1874 30.8749 20.1874C30.2191 20.1874 29.6874 19.6558 29.6874 18.9999V16.2291H26.9166C26.2607 16.2291 25.7291 15.6974 25.7291 15.0416C25.7291 14.3857 26.2607 13.8541 26.9166 13.8541H29.6874V11.0833C29.6874 10.4274 30.2191 9.89575 30.8749 9.89575Z" fill="#176DEA"/>
</svg>
