<svg width="24" height="24" viewBox="0 0 24 24" fill="none" xmlns="http://www.w3.org/2000/svg">
<path d="M7.54167 9.93848C6.73625 9.93848 6.08333 10.5914 6.08333 11.3968C6.08333 12.2022 6.73625 12.8551 7.54167 12.8551C8.34708 12.8551 9 12.2022 9 11.3968C9 10.5914 8.34708 9.93848 7.54167 9.93848Z" fill="black"/>
<path d="M12.2083 9.93848C11.4029 9.93848 10.75 10.5914 10.75 11.3968C10.75 12.2022 11.4029 12.8551 12.2083 12.8551C13.0137 12.8551 13.6667 12.2022 13.6667 11.3968C13.6667 10.5914 13.0137 9.93848 12.2083 9.93848Z" fill="black"/>
<path d="M15.4167 11.3968C15.4167 10.5914 16.0696 9.93848 16.875 9.93848C17.6804 9.93848 18.3333 10.5914 18.3333 11.3968C18.3333 12.2022 17.6804 12.8551 16.875 12.8551C16.0696 12.8551 15.4167 12.2022 15.4167 11.3968Z" fill="black"/>
<path fill-rule="evenodd" clip-rule="evenodd" d="M16.9925 4.2134C13.8493 3.94535 10.6896 3.92979 7.54393 4.16688L7.3185 4.18388C4.31864 4.40997 2 6.90994 2 9.91831V19.8552C2 20.163 2.16178 20.4482 2.42601 20.6062C2.69024 20.7641 3.01804 20.7716 3.28921 20.6259L7.8518 18.1739C8.06403 18.0598 8.30122 18.0002 8.54215 18.0002H19.0146C20.3354 18.0002 21.4673 17.0559 21.704 15.7565C22.1839 13.123 22.2218 10.4281 21.8162 7.78219L21.6967 7.00247C21.4791 5.58293 20.3178 4.49698 18.8869 4.37495L16.9925 4.2134ZM7.67546 5.91194C10.7279 5.68188 13.7938 5.69697 16.8438 5.95707L18.7382 6.11862C19.3639 6.17199 19.8717 6.64687 19.9669 7.26762L20.0864 8.04734C20.4625 10.5012 20.4274 13.0005 19.9824 15.4428C19.8972 15.9104 19.4899 16.2502 19.0146 16.2502H8.54215C8.01209 16.2502 7.49029 16.3815 7.02338 16.6324L3.75 18.3916V9.91831C3.75 7.82542 5.36305 6.08622 7.45002 5.92893L7.67546 5.91194Z" fill="black"/>
</svg>
