<svg width="50" height="50" viewBox="0 0 50 50" fill="none" xmlns="http://www.w3.org/2000/svg">
<path fill-rule="evenodd" clip-rule="evenodd" d="M5.84092 17.4027C5.25728 22.8254 5.2833 29.0795 6.09543 34.4802C6.5448 37.4685 8.9837 39.7595 11.9943 40.0212L15.1406 40.2947C21.7011 40.865 28.2987 40.8649 34.8592 40.2947L38.0055 40.0212C41.0161 39.7594 43.455 37.4685 43.9044 34.4802C44.7165 29.0795 44.7426 22.8257 44.1589 17.403C44.0835 16.7743 43.9986 16.1465 43.9044 15.5198C43.455 12.5314 41.0161 10.2405 38.0055 9.97881L34.8592 9.70531C28.2987 9.13501 21.7011 9.13501 15.1406 9.70531L11.9943 9.97881C8.9837 10.2405 6.5448 12.5314 6.09543 15.5198C6.0012 16.1464 5.91636 16.7741 5.84092 17.4027ZM15.4112 12.8186C21.7916 12.2639 28.2082 12.2639 34.5886 12.8186L37.7349 13.0921C39.3064 13.2287 40.5795 14.4245 40.8141 15.9845C40.8385 16.1465 40.8622 16.3085 40.8852 16.4707L29.2998 22.907C26.6256 24.3926 23.374 24.3926 20.6999 22.907L9.11458 16.4707C9.13762 16.3086 9.16132 16.1465 9.18569 15.9845C9.42026 14.4245 10.6934 13.2287 12.2649 13.0921L15.4112 12.8186ZM41.2676 19.8331C41.6717 24.5576 41.5206 29.3177 40.8141 34.0155C40.5795 35.5754 39.3064 36.7713 37.7349 36.9079L34.5886 37.1814C28.2082 37.736 21.7916 37.736 15.4112 37.1814L12.2649 36.9079C10.6934 36.7713 9.42026 35.5754 9.18569 34.0155C8.47925 29.3177 8.32808 24.5576 8.73218 19.8332L19.1822 25.6387C22.8002 27.6487 27.1994 27.6487 30.8174 25.6387L41.2676 19.8331Z" fill="#176DEA"/>
</svg>
